<svg width="1920" height="1080" viewBox="0 0 1920 1080" fill="none" xmlns="http://www.w3.org/2000/svg">
  <!-- Sky gradient -->
  <defs>
    <linearGradient id="skyGradient" x1="0%" y1="0%" x2="0%" y2="100%">
      <stop offset="0%" style="stop-color:#87CEEB;stop-opacity:1" />
      <stop offset="100%" style="stop-color:#E6F3FF;stop-opacity:1" />
    </linearGradient>
    <linearGradient id="castleGradient" x1="0%" y1="0%" x2="0%" y2="100%">
      <stop offset="0%" style="stop-color:#8B7355;stop-opacity:1" />
      <stop offset="100%" style="stop-color:#5D4E37;stop-opacity:1" />
    </linearGradient>
  </defs>
  
  <!-- Sky -->
  <rect width="1920" height="1080" fill="url(#skyGradient)"/>
  
  <!-- Mountains in background -->
  <polygon points="0,400 300,200 600,350 900,180 1200,320 1500,150 1800,280 1920,250 1920,1080 0,1080" fill="#6B5B95" opacity="0.3"/>
  
  <!-- Castle structure -->
  <!-- Main keep -->
  <rect x="760" y="300" width="400" height="500" fill="url(#castleGradient)"/>
  
  <!-- Towers -->
  <rect x="680" y="200" width="120" height="600" fill="url(#castleGradient)"/>
  <rect x="1120" y="200" width="120" height="600" fill="url(#castleGradient)"/>
  <rect x="840" y="150" width="100" height="650" fill="url(#castleGradient)"/>
  <rect x="980" y="150" width="100" height="650" fill="url(#castleGradient)"/>
  
  <!-- Tower tops -->
  <polygon points="680,200 740,150 800,200" fill="#654321"/>
  <polygon points="1120,200 1180,150 1240,200" fill="#654321"/>
  <polygon points="840,150 890,100 940,150" fill="#654321"/>
  <polygon points="980,150 1030,100 1080,150" fill="#654321"/>
  
  <!-- Castle gate -->
  <rect x="860" y="600" width="80" height="120" fill="#2F1B14"/>
  <path d="M860,720 Q900,680 940,720" fill="#2F1B14"/>
  
  <!-- Windows -->
  <rect x="720" y="300" width="20" height="30" fill="#1a1a1a"/>
  <rect x="720" y="400" width="20" height="30" fill="#1a1a1a"/>
  <rect x="720" y="500" width="20" height="30" fill="#1a1a1a"/>
  
  <rect x="1180" y="300" width="20" height="30" fill="#1a1a1a"/>
  <rect x="1180" y="400" width="20" height="30" fill="#1a1a1a"/>
  <rect x="1180" y="500" width="20" height="30" fill="#1a1a1a"/>
  
  <rect x="870" y="250" width="15" height="25" fill="#1a1a1a"/>
  <rect x="870" y="350" width="15" height="25" fill="#1a1a1a"/>
  <rect x="1010" y="250" width="15" height="25" fill="#1a1a1a"/>
  <rect x="1010" y="350" width="15" height="25" fill="#1a1a1a"/>
  
  <!-- Flags -->
  <rect x="890" y="100" width="2" height="50" fill="#8B4513"/>
  <polygon points="892,100 892,115 920,107" fill="#FF0000"/>
  
  <rect x="1030" y="100" width="2" height="50" fill="#8B4513"/>
  <polygon points="1032,100 1032,115 1060,107" fill="#0000FF"/>
  
  <!-- Ground -->
  <rect x="0" y="800" width="1920" height="280" fill="#228B22"/>
  
  <!-- Path to castle -->
  <polygon points="600,800 900,750 1020,750 1320,800 1320,1080 600,1080" fill="#8B7D6B"/>
  
  <!-- Trees -->
  <!-- Left side trees -->
  <rect x="100" y="600" width="20" height="200" fill="#8B4513"/>
  <circle cx="110" cy="600" r="60" fill="#228B22"/>
  
  <rect x="200" y="650" width="25" height="150" fill="#8B4513"/>
  <circle cx="212" cy="650" r="70" fill="#228B22"/>
  
  <rect x="50" y="680" width="18" height="120" fill="#8B4513"/>
  <circle cx="59" cy="680" r="50" fill="#228B22"/>
  
  <!-- Right side trees -->
  <rect x="1700" y="600" width="20" height="200" fill="#8B4513"/>
  <circle cx="1710" cy="600" r="60" fill="#228B22"/>
  
  <rect x="1600" y="650" width="25" height="150" fill="#8B4513"/>
  <circle cx="1612" cy="650" r="70" fill="#228B22"/>
  
  <rect x="1750" y="680" width="18" height="120" fill="#8B4513"/>
  <circle cx="1759" cy="680" r="50" fill="#228B22"/>
  
  <!-- Clouds -->
  <ellipse cx="300" cy="150" rx="80" ry="40" fill="white" opacity="0.8"/>
  <ellipse cx="330" cy="140" rx="60" ry="30" fill="white" opacity="0.8"/>
  <ellipse cx="270" cy="140" rx="50" ry="25" fill="white" opacity="0.8"/>
  
  <ellipse cx="1500" cy="120" rx="90" ry="45" fill="white" opacity="0.8"/>
  <ellipse cx="1530" cy="110" rx="70" ry="35" fill="white" opacity="0.8"/>
  <ellipse cx="1470" cy="110" rx="60" ry="30" fill="white" opacity="0.8"/>
</svg>
