<svg width="1920" height="1080" viewBox="0 0 1920 1080" fill="none" xmlns="http://www.w3.org/2000/svg">
  <!-- Sky gradient -->
  <defs>
    <radialGradient id="moonGradient" cx="50%" cy="50%" r="50%">
      <stop offset="0%" style="stop-color:#F5F5DC;stop-opacity:1" />
      <stop offset="100%" style="stop-color:#E6E6FA;stop-opacity:1" />
    </radialGradient>
    <linearGradient id="skyGradient" x1="0%" y1="0%" x2="0%" y2="100%">
      <stop offset="0%" style="stop-color:#191970;stop-opacity:1" />
      <stop offset="50%" style="stop-color:#483D8B;stop-opacity:1" />
      <stop offset="100%" style="stop-color:#2F4F4F;stop-opacity:1" />
    </linearGradient>
    <linearGradient id="groundGradient" x1="0%" y1="0%" x2="0%" y2="100%">
      <stop offset="0%" style="stop-color:#228B22;stop-opacity:1" />
      <stop offset="100%" style="stop-color:#006400;stop-opacity:1" />
    </linearGradient>
  </defs>
  
  <!-- Night sky -->
  <rect width="1920" height="1080" fill="url(#skyGradient)"/>
  
  <!-- Stars -->
  <circle cx="200" cy="100" r="2" fill="white" opacity="0.8"/>
  <circle cx="400" cy="80" r="1.5" fill="white" opacity="0.9"/>
  <circle cx="600" cy="120" r="2.5" fill="white" opacity="0.7"/>
  <circle cx="800" cy="90" r="1" fill="white" opacity="0.8"/>
  <circle cx="1000" cy="110" r="2" fill="white" opacity="0.9"/>
  <circle cx="1200" cy="70" r="1.5" fill="white" opacity="0.8"/>
  <circle cx="1400" cy="130" r="2" fill="white" opacity="0.7"/>
  <circle cx="1600" cy="85" r="1" fill="white" opacity="0.9"/>
  <circle cx="1800" cy="105" r="2.5" fill="white" opacity="0.8"/>
  
  <circle cx="150" cy="180" r="1" fill="white" opacity="0.6"/>
  <circle cx="350" cy="160" r="2" fill="white" opacity="0.8"/>
  <circle cx="550" cy="140" r="1.5" fill="white" opacity="0.7"/>
  <circle cx="750" cy="170" r="1" fill="white" opacity="0.9"/>
  <circle cx="950" cy="150" r="2" fill="white" opacity="0.6"/>
  <circle cx="1150" cy="190" r="1.5" fill="white" opacity="0.8"/>
  <circle cx="1350" cy="160" r="1" fill="white" opacity="0.7"/>
  <circle cx="1550" cy="180" r="2" fill="white" opacity="0.9"/>
  <circle cx="1750" cy="140" r="1.5" fill="white" opacity="0.8"/>
  
  <!-- Large moon -->
  <circle cx="1600" cy="200" r="80" fill="url(#moonGradient)" opacity="0.9"/>
  <circle cx="1580" cy="180" r="8" fill="#D3D3D3" opacity="0.6"/>
  <circle cx="1620" cy="210" r="12" fill="#D3D3D3" opacity="0.4"/>
  <circle cx="1590" cy="220" r="6" fill="#D3D3D3" opacity="0.5"/>
  
  <!-- Moon light rays -->
  <polygon points="1600,120 1580,800 1620,800" fill="#F5F5DC" opacity="0.1"/>
  
  <!-- Distant mountains -->
  <polygon points="0,350 200,250 400,300 600,200 800,280 1000,220 1200,260 1400,180 1600,240 1800,200 1920,220 1920,1080 0,1080" fill="#2F4F4F" opacity="0.6"/>
  
  <!-- Forest ground -->
  <rect x="0" y="700" width="1920" height="380" fill="url(#groundGradient)"/>
  
  <!-- Large trees - back layer -->
  <!-- Tree 1 -->
  <rect x="80" y="400" width="40" height="300" fill="#8B4513"/>
  <circle cx="100" cy="400" r="120" fill="#228B22"/>
  <circle cx="80" cy="380" r="80" fill="#32CD32"/>
  <circle cx="120" cy="420" r="90" fill="#228B22"/>
  
  <!-- Tree 2 -->
  <rect x="300" y="350" width="50" height="350" fill="#654321"/>
  <circle cx="325" cy="350" r="140" fill="#228B22"/>
  <circle cx="300" cy="320" r="100" fill="#32CD32"/>
  <circle cx="350" cy="380" r="110" fill="#228B22"/>
  
  <!-- Tree 3 -->
  <rect x="500" y="380" width="35" height="320" fill="#8B4513"/>
  <circle cx="518" cy="380" r="100" fill="#228B22"/>
  <circle cx="500" cy="360" r="70" fill="#32CD32"/>
  <circle cx="535" cy="400" r="85" fill="#228B22"/>
  
  <!-- Tree 4 - Large central tree -->
  <rect x="800" y="250" width="80" height="450" fill="#654321"/>
  <circle cx="840" cy="250" r="200" fill="#228B22"/>
  <circle cx="800" cy="200" r="140" fill="#32CD32"/>
  <circle cx="880" cy="280" r="160" fill="#228B22"/>
  <circle cx="820" cy="320" r="120" fill="#006400"/>
  
  <!-- Tree 5 -->
  <rect x="1200" y="380" width="45" height="320" fill="#8B4513"/>
  <circle cx="1222" cy="380" r="110" fill="#228B22"/>
  <circle cx="1200" cy="350" r="80" fill="#32CD32"/>
  <circle cx="1245" cy="410" r="95" fill="#228B22"/>
  
  <!-- Tree 6 -->
  <rect x="1450" y="350" width="55" height="350" fill="#654321"/>
  <circle cx="1477" cy="350" r="150" fill="#228B22"/>
  <circle cx="1450" cy="310" r="110" fill="#32CD32"/>
  <circle cx="1505" cy="390" r="120" fill="#228B22"/>
  
  <!-- Tree 7 -->
  <rect x="1700" y="400" width="40" height="300" fill="#8B4513"/>
  <circle cx="1720" cy="400" r="100" fill="#228B22"/>
  <circle cx="1700" cy="380" r="70" fill="#32CD32"/>
  <circle cx="1740" cy="420" r="80" fill="#228B22"/>
  
  <!-- Medium trees - middle layer -->
  <rect x="150" y="500" width="25" height="200" fill="#8B4513"/>
  <circle cx="162" cy="500" r="60" fill="#228B22"/>
  
  <rect x="380" y="480" width="30" height="220" fill="#654321"/>
  <circle cx="395" cy="480" r="75" fill="#228B22"/>
  
  <rect x="650" y="520" width="20" height="180" fill="#8B4513"/>
  <circle cx="660" cy="520" r="50" fill="#228B22"/>
  
  <rect x="950" y="500" width="35" height="200" fill="#654321"/>
  <circle cx="967" cy="500" r="80" fill="#228B22"/>
  
  <rect x="1100" y="540" width="25" height="160" fill="#8B4513"/>
  <circle cx="1112" cy="540" r="55" fill="#228B22"/>
  
  <rect x="1350" y="510" width="30" height="190" fill="#654321"/>
  <circle cx="1365" cy="510" r="70" fill="#228B22"/>
  
  <rect x="1600" y="530" width="25" height="170" fill="#8B4513"/>
  <circle cx="1612" cy="530" r="60" fill="#228B22"/>
  
  <!-- Small trees and bushes - front layer -->
  <circle cx="200" cy="650" r="40" fill="#228B22"/>
  <circle cx="250" cy="680" r="30" fill="#32CD32"/>
  <circle cx="450" cy="670" r="35" fill="#228B22"/>
  <circle cx="700" cy="660" r="45" fill="#006400"/>
  <circle cx="1000" cy="680" r="30" fill="#228B22"/>
  <circle cx="1250" cy="650" r="40" fill="#32CD32"/>
  <circle cx="1500" cy="670" r="35" fill="#228B22"/>
  <circle cx="1750" cy="660" r="30" fill="#006400"/>
  
  <!-- Path through forest -->
  <path d="M0,750 Q200,720 400,740 Q600,760 800,750 Q1000,740 1200,750 Q1400,760 1600,745 Q1800,730 1920,740 L1920,780 Q1800,770 1600,785 Q1400,800 1200,790 Q1000,780 800,790 Q600,800 400,780 Q200,760 0,790 Z" fill="#8B7D6B"/>
  
  <!-- Fireflies/magical lights -->
  <circle cx="300" cy="600" r="4" fill="#FFD700" opacity="0.8">
    <animate attributeName="opacity" values="0.8;0.3;0.8" dur="2s" repeatCount="indefinite"/>
  </circle>
  <circle cx="600" cy="550" r="3" fill="#FFD700" opacity="0.6">
    <animate attributeName="opacity" values="0.6;0.2;0.6" dur="3s" repeatCount="indefinite"/>
  </circle>
  <circle cx="900" cy="580" r="5" fill="#FFD700" opacity="0.9">
    <animate attributeName="opacity" values="0.9;0.4;0.9" dur="1.5s" repeatCount="indefinite"/>
  </circle>
  <circle cx="1200" cy="620" r="3" fill="#FFD700" opacity="0.7">
    <animate attributeName="opacity" values="0.7;0.3;0.7" dur="2.5s" repeatCount="indefinite"/>
  </circle>
  <circle cx="1500" cy="590" r="4" fill="#FFD700" opacity="0.8">
    <animate attributeName="opacity" values="0.8;0.2;0.8" dur="2s" repeatCount="indefinite"/>
  </circle>
  
  <!-- Mushrooms -->
  <ellipse cx="180" cy="690" rx="15" ry="8" fill="#DEB887"/>
  <rect x="175" y="685" width="10" height="15" fill="#F5DEB3"/>
  <circle cx="180" cy="680" r="12" fill="#FF6347"/>
  <circle cx="175" cy="675" r="3" fill="white"/>
  <circle cx="185" cy="678" r="2" fill="white"/>
  
  <ellipse cx="1350" cy="700" rx="12" ry="6" fill="#DEB887"/>
  <rect x="1347" y="696" width="8" height="12" fill="#F5DEB3"/>
  <circle cx="1350" cy="690" r="10" fill="#8A2BE2"/>
  <circle cx="1346" cy="686" r="2" fill="white"/>
  <circle cx="1354" cy="688" r="1.5" fill="white"/>
  
  <!-- Fallen logs -->
  <ellipse cx="400" cy="720" rx="60" ry="15" fill="#8B4513"/>
  <ellipse cx="1100" cy="730" rx="80" ry="18" fill="#654321"/>
  
  <!-- Rocks -->
  <ellipse cx="250" cy="710" rx="25" ry="15" fill="#696969"/>
  <ellipse cx="750" cy="720" rx="30" ry="18" fill="#778899"/>
  <ellipse cx="1300" cy="715" rx="20" ry="12" fill="#696969"/>
  
  <!-- Mist/fog effect -->
  <ellipse cx="500" cy="750" rx="200" ry="30" fill="white" opacity="0.1"/>
  <ellipse cx="900" cy="760" rx="250" ry="40" fill="white" opacity="0.08"/>
  <ellipse cx="1400" cy="755" rx="180" ry="25" fill="white" opacity="0.12"/>
</svg>
