<svg width="400" height="600" viewBox="0 0 400 600" fill="none" xmlns="http://www.w3.org/2000/svg">
  <!-- Magical aura background -->
  <ellipse cx="200" cy="300" rx="160" ry="290" fill="url(#magicAura)" opacity="0.4"/>
  
  <defs>
    <linearGradient id="magicAura" x1="0%" y1="0%" x2="100%" y2="100%">
      <stop offset="0%" style="stop-color:#9370DB;stop-opacity:0.6" />
      <stop offset="50%" style="stop-color:#4B0082;stop-opacity:0.4" />
      <stop offset="100%" style="stop-color:#8A2BE2;stop-opacity:0.2" />
    </linearGradient>
    <linearGradient id="skinTone" x1="0%" y1="0%" x2="0%" y2="100%">
      <stop offset="0%" style="stop-color:#FDBCB4;stop-opacity:1" />
      <stop offset="100%" style="stop-color:#F7A693;stop-opacity:1" />
    </linearGradient>
    <linearGradient id="blueHair" x1="0%" y1="0%" x2="0%" y2="100%">
      <stop offset="0%" style="stop-color:#4169E1;stop-opacity:1" />
      <stop offset="100%" style="stop-color:#1E90FF;stop-opacity:1" />
    </linearGradient>
    <linearGradient id="robeGradient" x1="0%" y1="0%" x2="0%" y2="100%">
      <stop offset="0%" style="stop-color:#4B0082;stop-opacity:1" />
      <stop offset="100%" style="stop-color:#6A5ACD;stop-opacity:1" />
    </linearGradient>
  </defs>
  
  <!-- Mage robe -->
  <path d="M140 220 Q130 240 125 280 Q120 350 130 420 Q140 480 150 520 Q155 540 165 560 L175 580 Q185 585 200 580 Q215 575 225 580 L235 560 Q245 540 250 520 Q260 480 270 420 Q280 350 275 280 Q270 240 260 220 Q240 210 200 215 Q160 210 140 220 Z" fill="url(#robeGradient)"/>
  
  <!-- Robe sleeves -->
  <ellipse cx="120" cy="300" rx="30" ry="60" fill="url(#robeGradient)" transform="rotate(-20 120 300)"/>
  <ellipse cx="280" cy="300" rx="30" ry="60" fill="url(#robeGradient)" transform="rotate(20 280 300)"/>
  
  <!-- Body -->
  <ellipse cx="200" cy="360" rx="50" ry="100" fill="url(#robeGradient)"/>
  
  <!-- Magical staff (right hand) -->
  <rect x="290" y="200" width="6" height="150" fill="#8B4513" transform="rotate(20 293 275)"/>
  <circle cx="300" cy="190" r="12" fill="#9370DB" transform="rotate(20 300 190)"/>
  <circle cx="300" cy="190" r="8" fill="#FFD700" transform="rotate(20 300 190)"/>
  
  <!-- Staff magical glow -->
  <circle cx="300" cy="190" r="15" fill="#9370DB" opacity="0.5" transform="rotate(20 300 190)">
    <animate attributeName="opacity" values="0.5;0.8;0.5" dur="2s" repeatCount="indefinite"/>
  </circle>
  
  <!-- Arms -->
  <ellipse cx="150" cy="320" rx="15" ry="40" fill="url(#skinTone)" transform="rotate(-10 150 320)"/>
  <ellipse cx="250" cy="320" rx="15" ry="40" fill="url(#skinTone)" transform="rotate(10 250 320)"/>
  
  <!-- Hands -->
  <circle cx="140" cy="360" r="12" fill="url(#skinTone)"/>
  <circle cx="260" cy="360" r="12" fill="url(#skinTone)"/>
  
  <!-- Magical sparkles around left hand -->
  <circle cx="125" cy="350" r="3" fill="#FFD700" opacity="0.8">
    <animate attributeName="opacity" values="0.8;0.3;0.8" dur="1.5s" repeatCount="indefinite"/>
  </circle>
  <circle cx="135" cy="345" r="2" fill="#9370DB" opacity="0.7">
    <animate attributeName="opacity" values="0.7;0.2;0.7" dur="2s" repeatCount="indefinite"/>
  </circle>
  <circle cx="148" cy="352" r="2.5" fill="#4169E1" opacity="0.6">
    <animate attributeName="opacity" values="0.6;0.1;0.6" dur="1.8s" repeatCount="indefinite"/>
  </circle>
  
  <!-- Belt with magical ornaments -->
  <rect x="170" y="400" width="60" height="12" fill="#FFD700"/>
  <circle cx="190" cy="406" r="6" fill="#9370DB"/>
  <circle cx="210" cy="406" r="6" fill="#4169E1"/>
  
  <!-- Legs -->
  <ellipse cx="185" cy="480" rx="16" ry="70" fill="url(#robeGradient)"/>
  <ellipse cx="215" cy="480" rx="16" ry="70" fill="url(#robeGradient)"/>
  
  <!-- Boots -->
  <ellipse cx="185" cy="540" rx="20" ry="25" fill="#2F2F2F"/>
  <ellipse cx="215" cy="540" rx="20" ry="25" fill="#2F2F2F"/>
  
  <!-- Boot magical runes -->
  <circle cx="185" cy="535" r="3" fill="#9370DB"/>
  <circle cx="215" cy="535" r="3" fill="#9370DB"/>
  
  <!-- Neck -->
  <ellipse cx="200" cy="240" rx="12" ry="20" fill="url(#skinTone)"/>
  
  <!-- Face -->
  <circle cx="200" cy="180" r="40" fill="url(#skinTone)"/>
  
  <!-- Hair -->
  <path d="M160 160 Q165 135 185 130 Q200 125 215 130 Q235 135 240 160 Q240 180 235 200 Q215 210 200 205 Q185 210 165 200 Q160 180 160 160 Z" fill="url(#blueHair)"/>
  
  <!-- Messy hair spikes -->
  <path d="M175 135 Q180 115 185 135" fill="url(#blueHair)"/>
  <path d="M195 128 Q200 110 205 128" fill="url(#blueHair)"/>
  <path d="M215 135 Q220 118 225 135" fill="url(#blueHair)"/>
  <path d="M170 145 Q175 125 180 145" fill="url(#blueHair)"/>
  <path d="M220 145 Q225 125 230 145" fill="url(#blueHair)"/>
  
  <!-- Eyes (mischievous) -->
  <ellipse cx="185" cy="175" rx="10" ry="8" fill="white"/>
  <ellipse cx="215" cy="175" rx="10" ry="8" fill="white"/>
  <circle cx="185" cy="175" r="6" fill="#32CD32"/>
  <circle cx="215" cy="175" r="6" fill="#32CD32"/>
  <circle cx="186" cy="173" r="2" fill="white"/>
  <circle cx="216" cy="173" r="2" fill="white"/>
  
  <!-- Playful eyebrows -->
  <path d="M173 165 Q183 160 193 165" stroke="#4169E1" stroke-width="3" fill="none"/>
  <path d="M207 165 Q217 160 227 165" stroke="#4169E1" stroke-width="3" fill="none"/>
  
  <!-- Nose -->
  <line x1="200" y1="180" x2="200" y2="188" stroke="#E8A798" stroke-width="2"/>
  
  <!-- Playful smile -->
  <path d="M188 200 Q200 210 212 200" stroke="#CD5C5C" stroke-width="3" fill="none"/>
  
  <!-- Dimples -->
  <circle cx="180" cy="195" r="1.5" fill="#E8A798" opacity="0.6"/>
  <circle cx="220" cy="195" r="1.5" fill="#E8A798" opacity="0.6"/>
  
  <!-- Magical pendant -->
  <circle cx="200" cy="260" r="8" fill="#FFD700"/>
  <circle cx="200" cy="260" r="5" fill="#9370DB"/>
  <path d="M195 255 L200 260 L205 255 L200 265 Z" fill="#4169E1"/>
  
  <!-- Pendant chain -->
  <path d="M200 252 Q200 245 200 235" stroke="#C0C0C0" stroke-width="2" fill="none"/>
  
  <!-- Floating magical orbs -->
  <circle cx="120" cy="180" r="8" fill="#9370DB" opacity="0.7">
    <animateTransform attributeName="transform" type="translate" values="0,0; 5,-10; 0,0" dur="3s" repeatCount="indefinite"/>
    <animate attributeName="opacity" values="0.7;0.3;0.7" dur="3s" repeatCount="indefinite"/>
  </circle>
  <circle cx="280" cy="160" r="6" fill="#4169E1" opacity="0.6">
    <animateTransform attributeName="transform" type="translate" values="0,0; -8,15; 0,0" dur="4s" repeatCount="indefinite"/>
    <animate attributeName="opacity" values="0.6;0.2;0.6" dur="4s" repeatCount="indefinite"/>
  </circle>
  <circle cx="150" cy="140" r="5" fill="#FFD700" opacity="0.8">
    <animateTransform attributeName="transform" type="translate" values="0,0; 10,5; 0,0" dur="2.5s" repeatCount="indefinite"/>
    <animate attributeName="opacity" values="0.8;0.4;0.8" dur="2.5s" repeatCount="indefinite"/>
  </circle>
  <circle cx="250" cy="140" r="7" fill="#32CD32" opacity="0.5">
    <animateTransform attributeName="transform" type="translate" values="0,0; -5,12; 0,0" dur="3.5s" repeatCount="indefinite"/>
    <animate attributeName="opacity" values="0.5;0.1;0.5" dur="3.5s" repeatCount="indefinite"/>
  </circle>
  
  <!-- Magic sparkles around character -->
  <circle cx="100" cy="250" r="2" fill="#FFD700" opacity="0.6">
    <animate attributeName="opacity" values="0.6;0.1;0.6" dur="2s" repeatCount="indefinite"/>
  </circle>
  <circle cx="300" cy="280" r="3" fill="#9370DB" opacity="0.7">
    <animate attributeName="opacity" values="0.7;0.2;0.7" dur="2.8s" repeatCount="indefinite"/>
  </circle>
  <circle cx="80" cy="350" r="2.5" fill="#4169E1" opacity="0.5">
    <animate attributeName="opacity" values="0.5;0.1;0.5" dur="3.2s" repeatCount="indefinite"/>
  </circle>
  <circle cx="320" cy="380" r="2" fill="#32CD32" opacity="0.6">
    <animate attributeName="opacity" values="0.6;0.1;0.6" dur="1.8s" repeatCount="indefinite"/>
  </circle>
  
  <!-- Robe details -->
  <path d="M160 250 Q200 255 240 250" stroke="#FFD700" stroke-width="2" fill="none"/>
  <path d="M165 350 Q200 355 235 350" stroke="#FFD700" stroke-width="2" fill="none"/>
  
  <!-- Magical runes on robe -->
  <circle cx="180" cy="280" r="4" fill="#FFD700" opacity="0.8"/>
  <polygon points="180,275 185,280 180,285 175,280" fill="#9370DB"/>
  
  <circle cx="220" cy="320" r="4" fill="#FFD700" opacity="0.8"/>
  <polygon points="220,315 225,320 220,325 215,320" fill="#4169E1"/>
</svg>
