<svg width="400" height="600" viewBox="0 0 400 600" fill="none" xmlns="http://www.w3.org/2000/svg">
  <!-- Dark mysterious aura -->
  <ellipse cx="200" cy="300" rx="180" ry="320" fill="url(#shadowAura)" opacity="0.6"/>
  
  <defs>
    <linearGradient id="shadowAura" x1="0%" y1="0%" x2="100%" y2="100%">
      <stop offset="0%" style="stop-color:#2F2F2F;stop-opacity:0.8" />
      <stop offset="50%" style="stop-color:#4B0082;stop-opacity:0.4" />
      <stop offset="100%" style="stop-color:#000000;stop-opacity:0.2" />
    </linearGradient>
    <linearGradient id="skinTone" x1="0%" y1="0%" x2="0%" y2="100%">
      <stop offset="0%" style="stop-color:#FDBCB4;stop-opacity:1" />
      <stop offset="100%" style="stop-color:#F7A693;stop-opacity:1" />
    </linearGradient>
    <linearGradient id="blackHair" x1="0%" y1="0%" x2="0%" y2="100%">
      <stop offset="0%" style="stop-color:#1A1A1A;stop-opacity:1" />
      <stop offset="100%" style="stop-color:#000000;stop-opacity:1" />
    </linearGradient>
    <linearGradient id="darkOutfit" x1="0%" y1="0%" x2="0%" y2="100%">
      <stop offset="0%" style="stop-color:#2F2F2F;stop-opacity:1" />
      <stop offset="100%" style="stop-color:#1A1A1A;stop-opacity:1" />
    </linearGradient>
    <linearGradient id="leather" x1="0%" y1="0%" x2="0%" y2="100%">
      <stop offset="0%" style="stop-color:#4B0000;stop-opacity:1" />
      <stop offset="100%" style="stop-color:#8B0000;stop-opacity:1" />
    </linearGradient>
  </defs>
  
  <!-- Shadowy cloak -->
  <path d="M100 180 Q80 200 70 260 Q65 330 75 400 Q85 460 95 500 Q100 520 110 540 L130 560 Q140 565 200 560 Q260 555 270 560 L290 540 Q300 520 305 500 Q315 460 325 400 Q335 330 330 260 Q320 200 300 180 Q250 170 200 175 Q150 170 100 180 Z" fill="url(#darkOutfit)" opacity="0.9"/>
  
  <!-- Hood -->
  <path d="M160 120 Q180 100 200 100 Q220 100 240 120 Q245 140 240 160 Q220 170 200 165 Q180 170 160 160 Q155 140 160 120 Z" fill="url(#darkOutfit)" opacity="0.8"/>
  
  <!-- Body/torso -->
  <ellipse cx="200" cy="340" rx="48" ry="95" fill="url(#darkOutfit)"/>
  
  <!-- Leather armor pieces -->
  <rect x="175" y="280" width="50" height="80" rx="5" fill="url(#leather)"/>
  <rect x="180" y="285" width="40" height="70" rx="3" fill="#4B0000" opacity="0.7"/>
  
  <!-- Armor straps -->
  <rect x="160" y="300" width="80" height="4" fill="#8B4513"/>
  <rect x="160" y="340" width="80" height="4" fill="#8B4513"/>
  
  <!-- Throwing knives on belt -->
  <rect x="150" y="375" width="12" height="3" fill="#C0C0C0"/>
  <rect x="165" y="375" width="12" height="3" fill="#C0C0C0"/>
  <rect x="180" y="375" width="12" height="3" fill="#C0C0C0"/>
  
  <!-- Hidden blade (partially visible) -->
  <rect x="280" y="320" width="15" height="2" fill="#C0C0C0" transform="rotate(20 287 321)"/>
  <rect x="275" y="318" width="8" height="6" fill="#2F2F2F" transform="rotate(20 279 321)"/>
  
  <!-- Arms -->
  <ellipse cx="160" cy="310" rx="13" ry="38" fill="url(#darkOutfit)" transform="rotate(-15 160 310)"/>
  <ellipse cx="240" cy="310" rx="13" ry="38" fill="url(#darkOutfit)" transform="rotate(15 240 310)"/>
  
  <!-- Forearms with arm guards -->
  <ellipse cx="145" cy="350" rx="10" ry="25" fill="url(#leather)" transform="rotate(-15 145 350)"/>
  <ellipse cx="255" cy="350" rx="10" ry="25" fill="url(#leather)" transform="rotate(15 255 350)"/>
  
  <!-- Hands -->
  <circle cx="135" cy="375" r="9" fill="url(#skinTone)"/>
  <circle cx="265" cy="375" r="9" fill="url(#skinTone)"/>
  
  <!-- Gloves -->
  <circle cx="135" cy="375" r="11" fill="url(#darkOutfit)" opacity="0.8"/>
  <circle cx="265" cy="375" r="11" fill="url(#darkOutfit)" opacity="0.8"/>
  
  <!-- Belt -->
  <rect x="170" y="390" width="60" height="12" fill="#8B4513"/>
  <rect x="190" y="385" width="20" height="22" fill="#2F2F2F"/>
  
  <!-- Legs -->
  <ellipse cx="185" cy="460" rx="16" ry="65" fill="url(#darkOutfit)"/>
  <ellipse cx="215" cy="460" rx="16" ry="65" fill="url(#darkOutfit)"/>
  
  <!-- Boots -->
  <ellipse cx="185" cy="530" rx="20" ry="30" fill="#000000"/>
  <ellipse cx="215" cy="530" rx="20" ry="30" fill="#000000"/>
  
  <!-- Boot buckles -->
  <rect x="180" y="520" width="10" height="3" fill="#C0C0C0"/>
  <rect x="210" y="520" width="10" height="3" fill="#C0C0C0"/>
  
  <!-- Neck -->
  <ellipse cx="200" cy="240" rx="11" ry="15" fill="url(#skinTone)"/>
  
  <!-- Neck guard -->
  <rect x="190" y="235" width="20" height="8" rx="4" fill="url(#leather)"/>
  
  <!-- Face -->
  <circle cx="200" cy="180" r="35" fill="url(#skinTone)"/>
  
  <!-- Hair (partially hidden by hood) -->
  <path d="M168 160 Q172 140 188 135 Q200 132 212 135 Q228 140 232 160 Q232 175 228 190 Q212 200 200 195 Q188 200 172 190 Q168 175 168 160 Z" fill="url(#blackHair)"/>
  
  <!-- Hair strands visible from hood -->
  <path d="M175 145 Q180 130 185 145" fill="url(#blackHair)"/>
  <path d="M215 145 Q220 130 225 145" fill="url(#blackHair)"/>
  
  <!-- Eyes (intense and piercing) -->
  <ellipse cx="185" cy="175" rx="8" ry="6" fill="white"/>
  <ellipse cx="215" cy="175" rx="8" ry="6" fill="white"/>
  <circle cx="185" cy="175" r="5" fill="#8B0000"/>
  <circle cx="215" cy="175" r="5" fill="#8B0000"/>
  <circle cx="186" cy="173" r="1.5" fill="white"/>
  <circle cx="216" cy="173" r="1.5" fill="white"/>
  
  <!-- Sharp eyebrows -->
  <path d="M175 168 Q183 165 193 170" stroke="#1A1A1A" stroke-width="3" fill="none"/>
  <path d="M207 170 Q217 165 225 168" stroke="#1A1A1A" stroke-width="3" fill="none"/>
  
  <!-- Nose -->
  <line x1="200" y1="178" x2="200" y2="185" stroke="#E8A798" stroke-width="1.5"/>
  
  <!-- Stern mouth -->
  <path d="M190 195 Q200 193 210 195" stroke="#CD5C5C" stroke-width="2" fill="none"/>
  
  <!-- Facial scar -->
  <path d="M210 165 Q215 175 220 185" stroke="#CD5C5C" stroke-width="1.5" fill="none" opacity="0.8"/>
  
  <!-- Shadow over part of face -->
  <path d="M170 150 Q180 155 190 150 Q195 165 190 180 Q180 185 170 180 Z" fill="#000000" opacity="0.3"/>
  
  <!-- Mysterious pendant -->
  <polygon points="200,260 205,270 200,280 195,270" fill="#8B0000"/>
  <circle cx="200" cy="270" r="3" fill="#FFD700"/>
  
  <!-- Pendant chain -->
  <path d="M200 257 Q200 250 200 245" stroke="#2F2F2F" stroke-width="2" fill="none"/>
  
  <!-- Shadow tendrils -->
  <path d="M80 300 Q90 290 100 300 Q110 310 120 300" stroke="#2F2F2F" stroke-width="2" fill="none" opacity="0.4">
    <animate attributeName="opacity" values="0.4;0.1;0.4" dur="4s" repeatCount="indefinite"/>
  </path>
  <path d="M320 320 Q310 310 300 320 Q290 330 280 320" stroke="#2F2F2F" stroke-width="2" fill="none" opacity="0.3">
    <animate attributeName="opacity" values="0.3;0.1;0.3" dur="3.5s" repeatCount="indefinite"/>
  </path>
  <path d="M90 400 Q100 390 110 400 Q120 410 130 400" stroke="#2F2F2F" stroke-width="2" fill="none" opacity="0.5">
    <animate attributeName="opacity" values="0.5;0.2;0.5" dur="4.5s" repeatCount="indefinite"/>
  </path>
  
  <!-- Dark magic wisps -->
  <circle cx="120" cy="200" r="3" fill="#4B0082" opacity="0.6">
    <animate attributeName="opacity" values="0.6;0.1;0.6" dur="3s" repeatCount="indefinite"/>
    <animateTransform attributeName="transform" type="translate" values="0,0; 10,-20; 0,0" dur="3s" repeatCount="indefinite"/>
  </circle>
  <circle cx="280" cy="180" r="2.5" fill="#8B0000" opacity="0.7">
    <animate attributeName="opacity" values="0.7;0.2;0.7" dur="2.5s" repeatCount="indefinite"/>
    <animateTransform attributeName="transform" type="translate" values="0,0; -15,25; 0,0" dur="2.5s" repeatCount="indefinite"/>
  </circle>
  <circle cx="150" cy="120" r="2" fill="#2F2F2F" opacity="0.5">
    <animate attributeName="opacity" values="0.5;0.1;0.5" dur="3.8s" repeatCount="indefinite"/>
    <animateTransform attributeName="transform" type="translate" values="0,0; 5,30; 0,0" dur="3.8s" repeatCount="indefinite"/>
  </circle>
  <circle cx="250" cy="140" r="3.5" fill="#4B0082" opacity="0.4">
    <animate attributeName="opacity" values="0.4;0.1;0.4" dur="4.2s" repeatCount="indefinite"/>
    <animateTransform attributeName="transform" type="translate" values="0,0; -8,15; 0,0" dur="4.2s" repeatCount="indefinite"/>
  </circle>
  
  <!-- Stealth effect particles -->
  <rect x="90" y="250" width="2" height="10" fill="#2F2F2F" opacity="0.3" transform="rotate(15 91 255)">
    <animate attributeName="opacity" values="0.3;0;0.3" dur="2s" repeatCount="indefinite"/>
  </rect>
  <rect x="310" y="280" width="2" height="8" fill="#4B0082" opacity="0.4" transform="rotate(-20 311 284)">
    <animate attributeName="opacity" values="0.4;0;0.4" dur="2.3s" repeatCount="indefinite"/>
  </rect>
  <rect x="70" y="350" width="3" height="12" fill="#8B0000" opacity="0.2" transform="rotate(30 71.5 356)">
    <animate attributeName="opacity" values="0.2;0;0.2" dur="3.1s" repeatCount="indefinite"/>
  </rect>
  <rect x="330" y="380" width="2" height="9" fill="#2F2F2F" opacity="0.35" transform="rotate(-25 331 384.5)">
    <animate attributeName="opacity" values="0.35;0;0.35" dur="2.8s" repeatCount="indefinite"/>
  </rect>
  
  <!-- Armor details -->
  <circle cx="190" cy="310" r="3" fill="#8B0000"/>
  <circle cx="210" cy="310" r="3" fill="#8B0000"/>
  <circle cx="200" cy="330" r="4" fill="#4B0000"/>
  
  <!-- Shadow blade effect -->
  <path d="M270 340 Q280 335 290 340 Q285 345 275 350" fill="#2F2F2F" opacity="0.6">
    <animate attributeName="opacity" values="0.6;0.2;0.6" dur="2s" repeatCount="indefinite"/>
  </path>
</svg>
