<svg width="400" height="600" viewBox="0 0 400 600" fill="none" xmlns="http://www.w3.org/2000/svg">
  <!-- Fiery dragon aura -->
  <ellipse cx="200" cy="300" rx="190" ry="320" fill="url(#dragonAura)" opacity="0.4"/>
  
  <defs>
    <linearGradient id="dragonAura" x1="0%" y1="0%" x2="100%" y2="100%">
      <stop offset="0%" style="stop-color:#FF4500;stop-opacity:0.6" />
      <stop offset="50%" style="stop-color:#FFD700;stop-opacity:0.3" />
      <stop offset="100%" style="stop-color:#DC143C;stop-opacity:0.2" />
    </linearGradient>
    <linearGradient id="skinTone" x1="0%" y1="0%" x2="0%" y2="100%">
      <stop offset="0%" style="stop-color:#FDBCB4;stop-opacity:1" />
      <stop offset="100%" style="stop-color:#F7A693;stop-opacity:1" />
    </linearGradient>
    <linearGradient id="redHair" x1="0%" y1="0%" x2="0%" y2="100%">
      <stop offset="0%" style="stop-color:#FF6347;stop-opacity:1" />
      <stop offset="100%" style="stop-color:#B22222;stop-opacity:1" />
    </linearGradient>
    <linearGradient id="wildOutfit" x1="0%" y1="0%" x2="0%" y2="100%">
      <stop offset="0%" style="stop-color:#8B4513;stop-opacity:1" />
      <stop offset="100%" style="stop-color:#654321;stop-opacity:1" />
    </linearGradient>
    <linearGradient id="dragonScale" x1="0%" y1="0%" x2="100%" y2="0%">
      <stop offset="0%" style="stop-color:#228B22;stop-opacity:1" />
      <stop offset="100%" style="stop-color:#32CD32;stop-opacity:1" />
    </linearGradient>
  </defs>
  
  <!-- Wild fur cloak -->
  <path d="M120 200 Q100 220 90 280 Q85 350 95 420 Q110 480 120 520 Q125 540 135 560 L155 580 Q165 585 200 580 Q235 575 245 580 L265 560 Q275 540 280 520 Q290 480 305 420 Q315 350 310 280 Q300 220 280 200 Q250 190 200 195 Q150 190 120 200 Z" fill="url(#wildOutfit)"/>
  
  <!-- Fur texture details -->
  <path d="M130 220 Q140 225 150 220" stroke="#654321" stroke-width="2" fill="none"/>
  <path d="M250 220 Q260 225 270 220" stroke="#654321" stroke-width="2" fill="none"/>
  <path d="M125 260 Q135 265 145 260" stroke="#654321" stroke-width="2" fill="none"/>
  
  <!-- Dragon scale armor pieces -->
  <ellipse cx="180" cy="300" rx="25" ry="15" fill="url(#dragonScale)" transform="rotate(-10 180 300)"/>
  <ellipse cx="220" cy="310" rx="25" ry="15" fill="url(#dragonScale)" transform="rotate(15 220 310)"/>
  <ellipse cx="200" cy="340" rx="30" ry="18" fill="url(#dragonScale)"/>
  
  <!-- Scale texture -->
  <circle cx="175" cy="295" r="3" fill="#228B22" opacity="0.8"/>
  <circle cx="185" cy="305" r="3" fill="#228B22" opacity="0.8"/>
  <circle cx="215" cy="305" r="3" fill="#228B22" opacity="0.8"/>
  <circle cx="225" cy="315" r="3" fill="#228B22" opacity="0.8"/>
  <circle cx="195" cy="335" r="4" fill="#228B22" opacity="0.8"/>
  <circle cx="205" cy="345" r="4" fill="#228B22" opacity="0.8"/>
  
  <!-- Body -->
  <ellipse cx="200" cy="370" rx="50" ry="90" fill="url(#wildOutfit)"/>
  
  <!-- Arms -->
  <ellipse cx="150" cy="330" rx="18" ry="45" fill="url(#skinTone)" transform="rotate(-20 150 330)"/>
  <ellipse cx="250" cy="330" rx="18" ry="45" fill="url(#skinTone)" transform="rotate(20 250 330)"/>
  
  <!-- Arm wrappings -->
  <rect x="135" y="350" width="30" height="4" fill="#8B4513" transform="rotate(-20 150 352)"/>
  <rect x="235" y="350" width="30" height="4" fill="#8B4513" transform="rotate(20 250 352)"/>
  
  <!-- Hands -->
  <circle cx="130" cy="375" r="12" fill="url(#skinTone)"/>
  <circle cx="270" cy="375" r="12" fill="url(#skinTone)"/>
  
  <!-- Dragon perched on shoulder -->
  <ellipse cx="270" cy="280" rx="15" ry="25" fill="url(#dragonScale)" transform="rotate(15 270 280)"/>
  <!-- Dragon head -->
  <circle cx="275" cy="265" r="8" fill="url(#dragonScale)"/>
  <!-- Dragon eyes -->
  <circle cx="273" cy="263" r="2" fill="#FFD700"/>
  <circle cx="277" cy="263" r="2" fill="#FFD700"/>
  <!-- Dragon wings -->
  <ellipse cx="265" cy="275" rx="8" ry="12" fill="#FF6347" opacity="0.7" transform="rotate(-30 265 275)"/>
  <ellipse cx="275" cy="275" rx="8" ry="12" fill="#FF6347" opacity="0.7" transform="rotate(30 275 275)"/>
  <!-- Dragon tail -->
  <path d="M280 290 Q285 295 290 300 Q285 305 280 300" fill="url(#dragonScale)"/>
  
  <!-- Dragon breath/flame -->
  <ellipse cx="285" cy="260" rx="8" ry="4" fill="#FF4500" opacity="0.6">
    <animate attributeName="opacity" values="0.6;0.9;0.6" dur="1.5s" repeatCount="indefinite"/>
  </ellipse>
  <ellipse cx="290" cy="258" rx="5" ry="2" fill="#FFD700" opacity="0.8">
    <animate attributeName="opacity" values="0.8;0.4;0.8" dur="1.5s" repeatCount="indefinite"/>
  </ellipse>
  
  <!-- Belt with dragon teeth -->
  <rect x="170" y="390" width="60" height="15" fill="#8B4513"/>
  <polygon points="180,385 185,395 175,395" fill="white"/>
  <polygon points="195,385 200,395 190,395" fill="white"/>
  <polygon points="210,385 215,395 205,395" fill="white"/>
  <polygon points="225,385 230,395 220,395" fill="white"/>
  
  <!-- Legs -->
  <ellipse cx="185" cy="470" rx="18" ry="70" fill="url(#wildOutfit)"/>
  <ellipse cx="215" cy="470" rx="18" ry="70" fill="url(#wildOutfit)"/>
  
  <!-- Boots with dragon scale details -->
  <ellipse cx="185" cy="540" rx="22" ry="32" fill="#2F2F2F"/>
  <ellipse cx="215" cy="540" rx="22" ry="32" fill="#2F2F2F"/>
  
  <!-- Scale boot decorations -->
  <ellipse cx="185" cy="525" rx="8" ry="5" fill="url(#dragonScale)"/>
  <ellipse cx="215" cy="525" rx="8" ry="5" fill="url(#dragonScale)"/>
  
  <!-- Neck -->
  <ellipse cx="200" cy="240" rx="14" ry="20" fill="url(#skinTone)"/>
  
  <!-- Face -->
  <circle cx="200" cy="180" r="42" fill="url(#skinTone)"/>
  
  <!-- Wild spiky hair -->
  <path d="M158 160 Q163 130 185 125 Q200 120 215 125 Q237 130 242 160 Q242 180 237 200 Q215 210 200 205 Q185 210 163 200 Q158 180 158 160 Z" fill="url(#redHair)"/>
  
  <!-- Spiky hair details -->
  <path d="M170 135 Q175 115 180 135" fill="url(#redHair)"/>
  <path d="M185 128 Q190 108 195 128" fill="url(#redHair)"/>
  <path d="M200 125 Q205 105 210 125" fill="url(#redHair)"/>
  <path d="M215 128 Q220 108 225 128" fill="url(#redHair)"/>
  <path d="M230 135 Q235 115 240 135" fill="url(#redHair)"/>
  
  <!-- Additional wild spikes -->
  <path d="M175 140 Q180 120 185 140" fill="url(#redHair)"/>
  <path d="M220 140 Q225 120 230 140" fill="url(#redHair)"/>
  
  <!-- Eyes (fierce and wild) -->
  <ellipse cx="185" cy="175" rx="10" ry="8" fill="white"/>
  <ellipse cx="215" cy="175" rx="10" ry="8" fill="white"/>
  <circle cx="185" cy="175" r="6" fill="#FF4500"/>
  <circle cx="215" cy="175" r="6" fill="#FF4500"/>
  <circle cx="186" cy="173" r="2" fill="white"/>
  <circle cx="216" cy="173" r="2" fill="white"/>
  
  <!-- Fierce eyebrows -->
  <path d="M173 165 Q183 160 193 167" stroke="#B22222" stroke-width="3" fill="none"/>
  <path d="M207 167 Q217 160 227 165" stroke="#B22222" stroke-width="3" fill="none"/>
  
  <!-- Nose -->
  <line x1="200" y1="180" x2="200" y2="188" stroke="#E8A798" stroke-width="2"/>
  
  <!-- Confident grin -->
  <path d="M188 200 Q200 210 212 200" stroke="#CD5C5C" stroke-width="3" fill="none"/>
  
  <!-- Battle scar -->
  <path d="M175 185 Q180 190 185 195" stroke="#CD5C5C" stroke-width="1.5" fill="none" opacity="0.7"/>
  
  <!-- Dragon claw necklace -->
  <polygon points="200,255 205,265 200,275 195,265" fill="#FFD700"/>
  <polygon points="190,260 195,270 190,280 185,270" fill="#FFD700"/>
  <polygon points="210,260 215,270 210,280 205,270" fill="#FFD700"/>
  
  <!-- Necklace cord -->
  <path d="M200 252 Q200 245 200 240" stroke="#8B4513" stroke-width="2" fill="none"/>
  
  <!-- Fire effects around character -->
  <circle cx="120" cy="200" r="5" fill="#FF4500" opacity="0.7">
    <animate attributeName="opacity" values="0.7;0.3;0.7" dur="2s" repeatCount="indefinite"/>
    <animateTransform attributeName="transform" type="translate" values="0,0; 15,-30; 0,0" dur="2s" repeatCount="indefinite"/>
  </circle>
  <circle cx="280" cy="180" r="4" fill="#FFD700" opacity="0.8">
    <animate attributeName="opacity" values="0.8;0.4;0.8" dur="1.8s" repeatCount="indefinite"/>
    <animateTransform attributeName="transform" type="translate" values="0,0; -12,25; 0,0" dur="1.8s" repeatCount="indefinite"/>
  </circle>
  <circle cx="100" cy="300" r="3" fill="#FF6347" opacity="0.6">
    <animate attributeName="opacity" values="0.6;0.2;0.6" dur="2.3s" repeatCount="indefinite"/>
    <animateTransform attributeName="transform" type="translate" values="0,0; 20,10; 0,0" dur="2.3s" repeatCount="indefinite"/>
  </circle>
  <circle cx="300" cy="320" r="6" fill="#FF4500" opacity="0.5">
    <animate attributeName="opacity" values="0.5;0.1;0.5" dur="2.5s" repeatCount="indefinite"/>
    <animateTransform attributeName="transform" type="translate" values="0,0; -25,-15; 0,0" dur="2.5s" repeatCount="indefinite"/>
  </circle>
  
  <!-- Dragon scales scattered around -->
  <ellipse cx="90" cy="250" rx="4" ry="2" fill="url(#dragonScale)" opacity="0.8" transform="rotate(30 90 250)"/>
  <ellipse cx="310" cy="280" rx="3" ry="2" fill="url(#dragonScale)" opacity="0.7" transform="rotate(-45 310 280)"/>
  <ellipse cx="80" cy="350" rx="5" ry="3" fill="url(#dragonScale)" opacity="0.6" transform="rotate(60 80 350)"/>
  <ellipse cx="320" cy="380" rx="4" ry="2" fill="url(#dragonScale)" opacity="0.8" transform="rotate(-30 320 380)"/>
  
  <!-- Wild wind effects -->
  <path d="M60 180 Q80 175 100 180" stroke="#FF6347" stroke-width="2" fill="none" opacity="0.4">
    <animate attributeName="opacity" values="0.4;0.1;0.4" dur="3s" repeatCount="indefinite"/>
  </path>
  <path d="M300 200 Q320 195 340 200" stroke="#FFD700" stroke-width="2" fill="none" opacity="0.3">
    <animate attributeName="opacity" values="0.3;0.1;0.3" dur="2.8s" repeatCount="indefinite"/>
  </path>
  
  <!-- Chest tribal markings -->
  <path d="M185 360 Q200 365 215 360" stroke="#FF6347" stroke-width="2" fill="none" opacity="0.6"/>
  <circle cx="190" cy="370" r="2" fill="#FF4500" opacity="0.7"/>
  <circle cx="210" cy="370" r="2" fill="#FF4500" opacity="0.7"/>
</svg>